<?xml version="1.0" encoding="iso-8859-1"?>
<!-- Generator: Adobe Illustrator 19.0.0, SVG Export Plug-In . SVG Version: 6.00 Build 0)  -->
<svg version="1.1" id="Capa_1" xmlns="http://www.w3.org/2000/svg" xmlns:xlink="http://www.w3.org/1999/xlink" x="0px" y="0px"
	 viewBox="0 0 512 512" style="enable-background:new 0 0 512 512;" xml:space="preserve">
<g>
	<g>
		<path d="M364.735,356.898l-61.212-20.284v-3.412c19.999-14.669,33.016-38.323,33.016-64.969v-88.94c0-5.522-4.478-10-10-10
			h-93.121c-31.958,0-57.958,25.999-57.958,57.957v40.983c0,26.646,13.016,50.3,33.015,64.968v3.413l-61.211,20.284
			c-24.17,8.009-40.409,30.497-40.409,55.96V502c0,5.522,4.478,10,10,10h95.146c5.522,0,10-4.478,10-10c0-5.522-4.478-10-10-10h-38
			v-62c0-5.522-4.478-10-10-10c-5.522,0-10,4.478-10,10v62h-27.146v-79.142c0-16.824,10.729-31.684,26.7-36.976l55.646-18.44v1.092
			c0,25.805,20.994,46.799,46.8,46.799c25.806,0,46.8-20.994,46.8-46.799v-1.09l55.644,18.439c15.971,5.292,26.7,20.151,26.7,36.976
			V492h-27.144v-62c0-5.522-4.478-10-10-10c-5.522,0-10,4.478-10,10v62h-45.2c-5.522,0-10,4.478-10,10c0,5.522,4.478,10,10,10
			h102.344c5.522,0,10-4.478,10-10v-89.142C405.144,387.396,388.905,364.907,364.735,356.898z M195.46,227.25
			c-0.001-20.93,17.028-37.957,37.957-37.957h83.121v50.467c-7.123,2.98-14.831,4.563-22.607,4.563
			c-18.252,0-35.135-8.309-46.32-22.794c-1.894-2.452-4.816-3.889-7.915-3.889c-3.098,0-6.021,1.437-7.915,3.888
			c-9.109,11.796-21.995,19.493-36.321,21.946V227.25z M282.8,358.535c0,14.777-12.022,26.798-26.8,26.798
			c-14.777,0-26.8-12.021-26.8-26.799v-14.363c8.389,2.969,17.405,4.602,26.798,4.602c9.395,0,18.412-1.633,26.802-4.603V358.535z
			 M255.997,328.772c-33.382,0-60.538-27.157-60.538-60.539v-4.558c16.698-2.109,32.109-9.455,44.236-21.101
			c14.516,13.94,33.729,21.749,54.235,21.749c7.672,0,15.301-1.141,22.607-3.332v7.242
			C316.537,301.615,289.379,328.772,255.997,328.772z"/>
	</g>
</g>
<g>
	<g>
		<path d="M256.569,494.93c-1.859-1.861-4.439-2.93-7.069-2.93c-2.63,0-5.21,1.069-7.07,2.93c-1.86,1.861-2.93,4.44-2.93,7.07
			s1.069,5.21,2.93,7.069c1.86,1.86,4.44,2.931,7.07,2.931s5.21-1.07,7.069-2.931c1.86-1.859,2.931-4.439,2.931-7.069
			S258.43,496.79,256.569,494.93z"/>
	</g>
</g>
<g>
	<g>
		<path d="M324.004,76.997C305.839,58.834,281.689,48.83,256,48.83c-25.689,0-49.839,10.004-68.004,28.168
			c-3.905,3.905-3.905,10.237,0,14.143c3.906,3.904,10.236,3.904,14.143,0C216.526,76.753,235.655,68.83,256,68.83
			c20.345,0,39.475,7.923,53.861,22.311c1.954,1.952,4.513,2.928,7.072,2.928c2.56,0,5.118-0.977,7.071-2.929
			C327.909,87.235,327.909,80.903,324.004,76.997z"/>
	</g>
</g>
<g>
	<g>
		<path d="M358.532,42.469C331.145,15.083,294.732,0,256,0s-75.144,15.083-102.531,42.47c-3.905,3.905-3.905,10.237,0,14.143
			c3.906,3.904,10.237,3.904,14.143-0.001c23.609-23.61,55-36.612,88.389-36.612c33.389,0,64.779,13.002,88.389,36.612
			c1.953,1.952,4.512,2.929,7.071,2.929s5.118-0.977,7.071-2.929C362.437,52.707,362.437,46.375,358.532,42.469z"/>
	</g>
</g>
<g>
	<g>
		<path d="M293.963,107.038c-20.934-20.932-54.992-20.932-75.926,0c-3.905,3.905-3.905,10.237,0,14.143
			c3.906,3.904,10.236,3.904,14.143,0c13.135-13.135,34.506-13.135,47.641,0c1.953,1.953,4.511,2.929,7.071,2.929
			s5.118-0.977,7.071-2.929C297.868,117.276,297.868,110.944,293.963,107.038z"/>
	</g>
</g>
<g>
	<g>
		<path d="M263.7,137.93c-1.86-1.86-4.44-2.93-7.07-2.93c-2.63,0-5.21,1.069-7.07,2.93c-1.859,1.86-2.93,4.44-2.93,7.07
			s1.07,5.21,2.93,7.069c1.86,1.86,4.44,2.931,7.07,2.931c2.63,0,5.21-1.07,7.07-2.931c1.859-1.859,2.93-4.439,2.93-7.069
			S265.56,139.79,263.7,137.93z"/>
	</g>
</g>
<g>
</g>
<g>
</g>
<g>
</g>
<g>
</g>
<g>
</g>
<g>
</g>
<g>
</g>
<g>
</g>
<g>
</g>
<g>
</g>
<g>
</g>
<g>
</g>
<g>
</g>
<g>
</g>
<g>
</g>
</svg>
